<?xml version="1.0" encoding="UTF-8" standalone="no"?>
<!-- Created with Inkscape (http://www.inkscape.org/) -->

<svg
   xmlns:dc="http://purl.org/dc/elements/1.1/"
   xmlns:cc="http://creativecommons.org/ns#"
   xmlns:rdf="http://www.w3.org/1999/02/22-rdf-syntax-ns#"
   xmlns:svg="http://www.w3.org/2000/svg"
   xmlns="http://www.w3.org/2000/svg"
   xmlns:sodipodi="http://sodipodi.sourceforge.net/DTD/sodipodi-0.dtd"
   xmlns:inkscape="http://www.inkscape.org/namespaces/inkscape"
   width="90"
   height="60"
   viewBox="0 0 90.000001 60.000001"
   id="svg3349"
   version="1.1"
   inkscape:version="0.91 r13725"
   sodipodi:docname="track-s.svg">
  <defs
     id="defs3351" />
  <sodipodi:namedview
     id="base"
     pagecolor="#ffffff"
     bordercolor="#666666"
     borderopacity="1.0"
     inkscape:pageopacity="0.0"
     inkscape:pageshadow="2"
     inkscape:zoom="12.089951"
     inkscape:cx="46.275862"
     inkscape:cy="27.743842"
     inkscape:document-units="px"
     inkscape:current-layer="layer1-6"
     showgrid="false"
     units="px"
     inkscape:window-width="1850"
     inkscape:window-height="1036"
     inkscape:window-x="69"
     inkscape:window-y="2"
     inkscape:window-maximized="0" />
  <metadata
     id="metadata3354">
    <rdf:RDF>
      <cc:Work
         rdf:about="">
        <dc:format>image/svg+xml</dc:format>
        <dc:type
           rdf:resource="http://purl.org/dc/dcmitype/StillImage" />
        <dc:title></dc:title>
      </cc:Work>
    </rdf:RDF>
  </metadata>
  <g
     inkscape:label="Layer 1"
     inkscape:groupmode="layer"
     id="layer1"
     transform="translate(0,-992.36216)">
    <g
       transform="translate(0.01687568,0.67292551)"
       id="layer1-6"
       inkscape:label="Layer 1">
      <path
         sodipodi:nodetypes="cc"
         inkscape:connector-curvature="0"
         id="path3336"
         d="M 0.09821117,1034.296 89.773137,997.5713"
         style="fill:none;fill-rule:evenodd;stroke:#000000;stroke-width:1.00105798px;stroke-linecap:butt;stroke-linejoin:miter;stroke-opacity:1" />
      <path
         sodipodi:nodetypes="ccccc"
         inkscape:connector-curvature="0"
         id="path3338"
         d="m 4.7315509,1027.4427 c 0.078859,20.1091 0.1577183,20.0302 0.1577183,20.0302 l 0,0 0,0 0,0"
         style="fill:none;fill-rule:evenodd;stroke:#000000;stroke-width:1px;stroke-linecap:butt;stroke-linejoin:miter;stroke-opacity:1" />
      <path
         style="fill:none;fill-rule:evenodd;stroke:#000000;stroke-width:1px;stroke-linecap:butt;stroke-linejoin:miter;stroke-opacity:1"
         d="m 14.671662,1023.2242 c 0.07886,9.1488 0.157718,20.0302 0.157718,20.0302 l 0,0 0,0 0,0"
         id="path3380"
         inkscape:connector-curvature="0"
         sodipodi:nodetypes="ccccc" />
      <path
         sodipodi:nodetypes="ccccc"
         inkscape:connector-curvature="0"
         id="path3382"
         d="m 24.509789,1019.8293 c 0.07886,20.1091 0.157718,20.0302 0.157718,20.0302 l 0,0 0,0 0,0"
         style="fill:none;fill-rule:evenodd;stroke:#000000;stroke-width:1px;stroke-linecap:butt;stroke-linejoin:miter;stroke-opacity:1" />
      <path
         style="fill:none;fill-rule:evenodd;stroke:#000000;stroke-width:1px;stroke-linecap:butt;stroke-linejoin:miter;stroke-opacity:1"
         d="m 34.851905,1016.1187 c 0.07886,20.1091 0.157718,20.0302 0.157718,20.0302 l 0,0 0,0 0,0"
         id="path3384"
         inkscape:connector-curvature="0"
         sodipodi:nodetypes="ccccc" />
      <path
         sodipodi:nodetypes="ccccc"
         inkscape:connector-curvature="0"
         id="path3386"
         d="m 44.709301,1010.9116 c 0.07886,20.1091 0.157718,20.0302 0.157718,20.0302 l 0,0 0,0 0,0"
         style="fill:none;fill-rule:evenodd;stroke:#000000;stroke-width:1px;stroke-linecap:butt;stroke-linejoin:miter;stroke-opacity:1" />
      <path
         style="fill:none;fill-rule:evenodd;stroke:#000000;stroke-width:1px;stroke-linecap:butt;stroke-linejoin:miter;stroke-opacity:1"
         d="m 55.036,1007.2722 c 0.07886,20.1091 0.157718,20.0302 0.157718,20.0302 l 0,0 0,0 0,0"
         id="path3388"
         inkscape:connector-curvature="0"
         sodipodi:nodetypes="ccccc" />
      <path
         style="fill:none;fill-rule:evenodd;stroke:#000000;stroke-width:1.00116372px;stroke-linecap:butt;stroke-linejoin:miter;stroke-opacity:1"
         d="M 0.01130229,1044.4101 89.864328,1008.7607"
         id="path4148"
         inkscape:connector-curvature="0"
         sodipodi:nodetypes="cc" />
      <path
         sodipodi:nodetypes="ccccc"
         inkscape:connector-curvature="0"
         id="path3440"
         d="m 64.713459,1003.4674 c 0.07886,20.1091 0.157718,20.0302 0.157718,20.0302 l 0,0 0,0 0,0"
         style="fill:none;fill-rule:evenodd;stroke:#000000;stroke-width:1px;stroke-linecap:butt;stroke-linejoin:miter;stroke-opacity:1" />
      <path
         style="fill:none;fill-rule:evenodd;stroke:#000000;stroke-width:1px;stroke-linecap:butt;stroke-linejoin:miter;stroke-opacity:1"
         d="m 74.225491,999.49716 c 0.07886,20.10914 0.157718,20.03024 0.157718,20.03024 l 0,0 0,0 0,0"
         id="path3442"
         inkscape:connector-curvature="0"
         sodipodi:nodetypes="ccccc" />
      <path
         sodipodi:nodetypes="ccccc"
         inkscape:connector-curvature="0"
         id="path3444"
         d="m 83.90295,995.77506 c 0.07886,20.10914 0.157718,20.03024 0.157718,20.03024 l 0,0 0,0 0,0"
         style="fill:none;fill-rule:evenodd;stroke:#000000;stroke-width:1px;stroke-linecap:butt;stroke-linejoin:miter;stroke-opacity:1" />
    </g>
  </g>
</svg>
