<?xml version="1.0" encoding="UTF-8" standalone="no"?>
<!-- Created with Inkscape (http://www.inkscape.org/) -->

<svg
   xmlns:dc="http://purl.org/dc/elements/1.1/"
   xmlns:cc="http://creativecommons.org/ns#"
   xmlns:rdf="http://www.w3.org/1999/02/22-rdf-syntax-ns#"
   xmlns:svg="http://www.w3.org/2000/svg"
   xmlns="http://www.w3.org/2000/svg"
   xmlns:sodipodi="http://sodipodi.sourceforge.net/DTD/sodipodi-0.dtd"
   xmlns:inkscape="http://www.inkscape.org/namespaces/inkscape"
   id="svg2985"
   version="1.1"
   inkscape:version="0.48.4 r9939"
   width="500"
   height="500"
   xml:space="preserve"
   sodipodi:docname="Train_Austria.svg"><metadata
     id="metadata2991"><rdf:RDF><cc:Work
         rdf:about=""><dc:format>image/svg+xml</dc:format><dc:type
           rdf:resource="http://purl.org/dc/dcmitype/StillImage" /><dc:title /></cc:Work></rdf:RDF></metadata><defs
     id="defs2989"><clipPath
       clipPathUnits="userSpaceOnUse"
       id="clipPath3557"><path
         d="m 168,3813.6 0,100 100,0 0,-100 -100,0 z"
         id="path3559"
         inkscape:connector-curvature="0" /></clipPath><clipPath
       clipPathUnits="userSpaceOnUse"
       id="clipPath3571"><path
         d="m 168,3813.6 0,100 100,0 0,-100 -100,0 z"
         id="path3573"
         inkscape:connector-curvature="0" /></clipPath><clipPath
       clipPathUnits="userSpaceOnUse"
       id="clipPath3585"><path
         d="m 168,3813.6 0,100 100,0 0,-100 -100,0 z"
         id="path3587"
         inkscape:connector-curvature="0" /></clipPath><clipPath
       clipPathUnits="userSpaceOnUse"
       id="clipPath3599"><path
         d="m 168,3813.6 0,100 100,0 0,-100 -100,0 z"
         id="path3601"
         inkscape:connector-curvature="0" /></clipPath><clipPath
       clipPathUnits="userSpaceOnUse"
       id="clipPath3613"><path
         d="m 168,3813.6 0,100 100,0 0,-100 -100,0 z"
         id="path3615"
         inkscape:connector-curvature="0" /></clipPath><clipPath
       clipPathUnits="userSpaceOnUse"
       id="clipPath3631"><path
         d="m 168,3813.6 0,100 100,0 0,-100 -100,0 z"
         id="path3633"
         inkscape:connector-curvature="0" /></clipPath><clipPath
       clipPathUnits="userSpaceOnUse"
       id="clipPath3657"><path
         d="m 168,3813.6 0,100 100,0 0,-100 -100,0 z"
         id="path3659"
         inkscape:connector-curvature="0" /></clipPath><clipPath
       clipPathUnits="userSpaceOnUse"
       id="clipPath3675"><path
         d="m 168,3813.6 0,100 100,0 0,-100 -100,0 z"
         id="path3677"
         inkscape:connector-curvature="0" /></clipPath><clipPath
       clipPathUnits="userSpaceOnUse"
       id="clipPath3693"><path
         d="m 168,3813.6 0,100 100,0 0,-100 -100,0 z"
         id="path3695"
         inkscape:connector-curvature="0" /></clipPath><clipPath
       clipPathUnits="userSpaceOnUse"
       id="clipPath3711"><path
         d="m 168,3813.6 0,100 100,0 0,-100 -100,0 z"
         id="path3713"
         inkscape:connector-curvature="0" /></clipPath><clipPath
       clipPathUnits="userSpaceOnUse"
       id="clipPath3729"><path
         d="m 168,3813.6 0,100 100,0 0,-100 -100,0 z"
         id="path3731"
         inkscape:connector-curvature="0" /></clipPath><clipPath
       clipPathUnits="userSpaceOnUse"
       id="clipPath3747"><path
         d="m 168,3813.6 0,100 100,0 0,-100 -100,0 z"
         id="path3749"
         inkscape:connector-curvature="0" /></clipPath><clipPath
       clipPathUnits="userSpaceOnUse"
       id="clipPath3765"><path
         d="m 168,3813.6 0,100 100,0 0,-100 -100,0 z"
         id="path3767"
         inkscape:connector-curvature="0" /></clipPath><clipPath
       clipPathUnits="userSpaceOnUse"
       id="clipPath3783"><path
         d="m 168,3813.6 0,100 100,0 0,-100 -100,0 z"
         id="path3785"
         inkscape:connector-curvature="0" /></clipPath><clipPath
       clipPathUnits="userSpaceOnUse"
       id="clipPath3801"><path
         d="m 168,3813.6 0,100 100,0 0,-100 -100,0 z"
         id="path3803"
         inkscape:connector-curvature="0" /></clipPath><clipPath
       clipPathUnits="userSpaceOnUse"
       id="clipPath3819"><path
         d="m 168,3813.6 0,100 100,0 0,-100 -100,0 z"
         id="path3821"
         inkscape:connector-curvature="0" /></clipPath><clipPath
       clipPathUnits="userSpaceOnUse"
       id="clipPath3837"><path
         d="m 168,3813.6 0,100 100,0 0,-100 -100,0 z"
         id="path3839"
         inkscape:connector-curvature="0" /></clipPath><clipPath
       clipPathUnits="userSpaceOnUse"
       id="clipPath3855"><path
         d="m 168,3813.6 0,100 100,0 0,-100 -100,0 z"
         id="path3857"
         inkscape:connector-curvature="0" /></clipPath><clipPath
       clipPathUnits="userSpaceOnUse"
       id="clipPath3873"><path
         d="m 168,3813.6 0,100 100,0 0,-100 -100,0 z"
         id="path3875"
         inkscape:connector-curvature="0" /></clipPath><clipPath
       clipPathUnits="userSpaceOnUse"
       id="clipPath3891"><path
         d="m 168,3813.6 0,100 100,0 0,-100 -100,0 z"
         id="path3893"
         inkscape:connector-curvature="0" /></clipPath><clipPath
       clipPathUnits="userSpaceOnUse"
       id="clipPath3909"><path
         d="m 168,3813.6 0,100 100,0 0,-100 -100,0 z"
         id="path3911"
         inkscape:connector-curvature="0" /></clipPath><clipPath
       clipPathUnits="userSpaceOnUse"
       id="clipPath3931"><path
         d="m 168,3813.6 0,100 100,0 0,-100 -100,0 z"
         id="path3933"
         inkscape:connector-curvature="0" /></clipPath><clipPath
       clipPathUnits="userSpaceOnUse"
       id="clipPath3949"><path
         d="m 168,3813.6 0,100 100,0 0,-100 -100,0 z"
         id="path3951"
         inkscape:connector-curvature="0" /></clipPath><clipPath
       clipPathUnits="userSpaceOnUse"
       id="clipPath3967"><path
         d="m 168,3813.6 0,100 100,0 0,-100 -100,0 z"
         id="path3969"
         inkscape:connector-curvature="0" /></clipPath><clipPath
       clipPathUnits="userSpaceOnUse"
       id="clipPath3985"><path
         d="m 168,3813.6 0,100 100,0 0,-100 -100,0 z"
         id="path3987"
         inkscape:connector-curvature="0" /></clipPath><clipPath
       clipPathUnits="userSpaceOnUse"
       id="clipPath4003"><path
         d="m 168,3813.6 0,100 100,0 0,-100 -100,0 z"
         id="path4005"
         inkscape:connector-curvature="0" /></clipPath><clipPath
       clipPathUnits="userSpaceOnUse"
       id="clipPath4017"><path
         d="m 168,3813.6 0,100 100,0 0,-100 -100,0 z"
         id="path4019"
         inkscape:connector-curvature="0" /></clipPath><clipPath
       clipPathUnits="userSpaceOnUse"
       id="clipPath4031"><path
         d="m 168,3813.6 0,100 100,0 0,-100 -100,0 z"
         id="path4033"
         inkscape:connector-curvature="0" /></clipPath><clipPath
       clipPathUnits="userSpaceOnUse"
       id="clipPath4045"><path
         d="m 168,3813.6 0,100 100,0 0,-100 -100,0 z"
         id="path4047"
         inkscape:connector-curvature="0" /></clipPath><clipPath
       clipPathUnits="userSpaceOnUse"
       id="clipPath4059"><path
         d="m 168,3813.6 0,100 100,0 0,-100 -100,0 z"
         id="path4061"
         inkscape:connector-curvature="0" /></clipPath><clipPath
       clipPathUnits="userSpaceOnUse"
       id="clipPath4077"><path
         d="m 168,3813.6 0,100 100,0 0,-100 -100,0 z"
         id="path4079"
         inkscape:connector-curvature="0" /></clipPath><clipPath
       clipPathUnits="userSpaceOnUse"
       id="clipPath4103"><path
         d="m 168,3813.6 0,100 100,0 0,-100 -100,0 z"
         id="path4105"
         inkscape:connector-curvature="0" /></clipPath><clipPath
       clipPathUnits="userSpaceOnUse"
       id="clipPath4121"><path
         d="m 168,3813.6 0,100 100,0 0,-100 -100,0 z"
         id="path4123"
         inkscape:connector-curvature="0" /></clipPath><clipPath
       clipPathUnits="userSpaceOnUse"
       id="clipPath4139"><path
         d="m 168,3813.6 0,100 100,0 0,-100 -100,0 z"
         id="path4141"
         inkscape:connector-curvature="0" /></clipPath><clipPath
       clipPathUnits="userSpaceOnUse"
       id="clipPath4157"><path
         d="m 168,3813.6 0,100 100,0 0,-100 -100,0 z"
         id="path4159"
         inkscape:connector-curvature="0" /></clipPath><clipPath
       clipPathUnits="userSpaceOnUse"
       id="clipPath4175"><path
         d="m 168,3813.6 0,100 100,0 0,-100 -100,0 z"
         id="path4177"
         inkscape:connector-curvature="0" /></clipPath><clipPath
       clipPathUnits="userSpaceOnUse"
       id="clipPath4193"><path
         d="m 168,3813.6 0,100 100,0 0,-100 -100,0 z"
         id="path4195"
         inkscape:connector-curvature="0" /></clipPath><clipPath
       clipPathUnits="userSpaceOnUse"
       id="clipPath4211"><path
         d="m 168,3813.6 0,100 100,0 0,-100 -100,0 z"
         id="path4213"
         inkscape:connector-curvature="0" /></clipPath><clipPath
       clipPathUnits="userSpaceOnUse"
       id="clipPath4229"><path
         d="m 168,3813.6 0,100 100,0 0,-100 -100,0 z"
         id="path4231"
         inkscape:connector-curvature="0" /></clipPath><clipPath
       clipPathUnits="userSpaceOnUse"
       id="clipPath4247"><path
         d="m 168,3813.6 0,100 100,0 0,-100 -100,0 z"
         id="path4249"
         inkscape:connector-curvature="0" /></clipPath><clipPath
       clipPathUnits="userSpaceOnUse"
       id="clipPath4265"><path
         d="m 168,3813.6 0,100 100,0 0,-100 -100,0 z"
         id="path4267"
         inkscape:connector-curvature="0" /></clipPath><clipPath
       clipPathUnits="userSpaceOnUse"
       id="clipPath4283"><path
         d="m 168,3813.6 0,100 100,0 0,-100 -100,0 z"
         id="path4285"
         inkscape:connector-curvature="0" /></clipPath><clipPath
       clipPathUnits="userSpaceOnUse"
       id="clipPath4301"><path
         d="m 168,3813.6 0,100 100,0 0,-100 -100,0 z"
         id="path4303"
         inkscape:connector-curvature="0" /></clipPath><clipPath
       clipPathUnits="userSpaceOnUse"
       id="clipPath4319"><path
         d="m 168,3813.6 0,100 100,0 0,-100 -100,0 z"
         id="path4321"
         inkscape:connector-curvature="0" /></clipPath><clipPath
       clipPathUnits="userSpaceOnUse"
       id="clipPath4337"><path
         d="m 168,3813.6 0,100 100,0 0,-100 -100,0 z"
         id="path4339"
         inkscape:connector-curvature="0" /></clipPath><clipPath
       clipPathUnits="userSpaceOnUse"
       id="clipPath4355"><path
         d="m 168,3813.6 0,100 100,0 0,-100 -100,0 z"
         id="path4357"
         inkscape:connector-curvature="0" /></clipPath><clipPath
       clipPathUnits="userSpaceOnUse"
       id="clipPath4377"><path
         d="m 168,3813.6 0,100 100,0 0,-100 -100,0 z"
         id="path4379"
         inkscape:connector-curvature="0" /></clipPath><clipPath
       clipPathUnits="userSpaceOnUse"
       id="clipPath4395"><path
         d="m 168,3813.6 0,100 100,0 0,-100 -100,0 z"
         id="path4397"
         inkscape:connector-curvature="0" /></clipPath><clipPath
       clipPathUnits="userSpaceOnUse"
       id="clipPath4413"><path
         d="m 168,3813.6 0,100 100,0 0,-100 -100,0 z"
         id="path4415"
         inkscape:connector-curvature="0" /></clipPath><clipPath
       clipPathUnits="userSpaceOnUse"
       id="clipPath4431"><path
         d="m 168,3813.6 0,100 100,0 0,-100 -100,0 z"
         id="path4433"
         inkscape:connector-curvature="0" /></clipPath><clipPath
       clipPathUnits="userSpaceOnUse"
       id="clipPath4449"><path
         d="m 168,3813.6 0,100 100,0 0,-100 -100,0 z"
         id="path4451"
         inkscape:connector-curvature="0" /></clipPath><clipPath
       clipPathUnits="userSpaceOnUse"
       id="clipPath4467"><path
         d="m 168,3813.6 0,100 100,0 0,-100 -100,0 z"
         id="path4469"
         inkscape:connector-curvature="0" /></clipPath><clipPath
       clipPathUnits="userSpaceOnUse"
       id="clipPath4485"><path
         d="m 168,3813.6 0,100 100,0 0,-100 -100,0 z"
         id="path4487"
         inkscape:connector-curvature="0" /></clipPath><clipPath
       clipPathUnits="userSpaceOnUse"
       id="clipPath4503"><path
         d="m 168,3813.6 0,100 100,0 0,-100 -100,0 z"
         id="path4505"
         inkscape:connector-curvature="0" /></clipPath><clipPath
       clipPathUnits="userSpaceOnUse"
       id="clipPath4521"><path
         d="m 168,3813.6 0,100 100,0 0,-100 -100,0 z"
         id="path4523"
         inkscape:connector-curvature="0" /></clipPath><clipPath
       clipPathUnits="userSpaceOnUse"
       id="clipPath4539"><path
         d="m 168,3813.6 0,100 100,0 0,-100 -100,0 z"
         id="path4541"
         inkscape:connector-curvature="0" /></clipPath><clipPath
       clipPathUnits="userSpaceOnUse"
       id="clipPath4557"><path
         d="m 168,3813.6 0,100 100,0 0,-100 -100,0 z"
         id="path4559"
         inkscape:connector-curvature="0" /></clipPath><clipPath
       clipPathUnits="userSpaceOnUse"
       id="clipPath4579"><path
         d="m 168,3813.6 0,100 100,0 0,-100 -100,0 z"
         id="path4581"
         inkscape:connector-curvature="0" /></clipPath><clipPath
       clipPathUnits="userSpaceOnUse"
       id="clipPath4601"><path
         d="m 168,3813.6 0,100 100,0 0,-100 -100,0 z"
         id="path4603"
         inkscape:connector-curvature="0" /></clipPath><clipPath
       clipPathUnits="userSpaceOnUse"
       id="clipPath4619"><path
         d="m 168,3813.6 0,100 100,0 0,-100 -100,0 z"
         id="path4621"
         inkscape:connector-curvature="0" /></clipPath><clipPath
       clipPathUnits="userSpaceOnUse"
       id="clipPath4637"><path
         d="m 168,3813.6 0,100 100,0 0,-100 -100,0 z"
         id="path4639"
         inkscape:connector-curvature="0" /></clipPath><clipPath
       clipPathUnits="userSpaceOnUse"
       id="clipPath4655"><path
         d="m 168,3813.6 0,100 100,0 0,-100 -100,0 z"
         id="path4657"
         inkscape:connector-curvature="0" /></clipPath><clipPath
       clipPathUnits="userSpaceOnUse"
       id="clipPath4673"><path
         d="m 168,3813.6 0,100 100,0 0,-100 -100,0 z"
         id="path4675"
         inkscape:connector-curvature="0" /></clipPath><clipPath
       clipPathUnits="userSpaceOnUse"
       id="clipPath4691"><path
         d="m 168,3813.6 0,100 100,0 0,-100 -100,0 z"
         id="path4693"
         inkscape:connector-curvature="0" /></clipPath><clipPath
       clipPathUnits="userSpaceOnUse"
       id="clipPath4709"><path
         d="m 168,3813.6 0,100 100,0 0,-100 -100,0 z"
         id="path4711"
         inkscape:connector-curvature="0" /></clipPath><clipPath
       clipPathUnits="userSpaceOnUse"
       id="clipPath4727"><path
         d="m 168,3813.6 0,100 100,0 0,-100 -100,0 z"
         id="path4729"
         inkscape:connector-curvature="0" /></clipPath><clipPath
       clipPathUnits="userSpaceOnUse"
       id="clipPath4745"><path
         d="m 168,3813.6 0,100 100,0 0,-100 -100,0 z"
         id="path4747"
         inkscape:connector-curvature="0" /></clipPath><clipPath
       clipPathUnits="userSpaceOnUse"
       id="clipPath4763"><path
         d="m 168,3813.6 0,100 100,0 0,-100 -100,0 z"
         id="path4765"
         inkscape:connector-curvature="0" /></clipPath><clipPath
       clipPathUnits="userSpaceOnUse"
       id="clipPath4781"><path
         d="m 168,3813.6 0,100 100,0 0,-100 -100,0 z"
         id="path4783"
         inkscape:connector-curvature="0" /></clipPath><clipPath
       clipPathUnits="userSpaceOnUse"
       id="clipPath4799"><path
         d="m 168,3813.6 0,100 100,0 0,-100 -100,0 z"
         id="path4801"
         inkscape:connector-curvature="0" /></clipPath><clipPath
       clipPathUnits="userSpaceOnUse"
       id="clipPath4817"><path
         d="m 168,3813.6 0,100 100,0 0,-100 -100,0 z"
         id="path4819"
         inkscape:connector-curvature="0" /></clipPath><clipPath
       clipPathUnits="userSpaceOnUse"
       id="clipPath4839"><path
         d="m 168,3813.6 0,100 100,0 0,-100 -100,0 z"
         id="path4841"
         inkscape:connector-curvature="0" /></clipPath><clipPath
       clipPathUnits="userSpaceOnUse"
       id="clipPath4857"><path
         d="m 168,3813.6 0,100 100,0 0,-100 -100,0 z"
         id="path4859"
         inkscape:connector-curvature="0" /></clipPath><clipPath
       clipPathUnits="userSpaceOnUse"
       id="clipPath4875"><path
         d="m 168,3813.6 0,100 100,0 0,-100 -100,0 z"
         id="path4877"
         inkscape:connector-curvature="0" /></clipPath><clipPath
       clipPathUnits="userSpaceOnUse"
       id="clipPath4893"><path
         d="m 168,3813.6 0,100 100,0 0,-100 -100,0 z"
         id="path4895"
         inkscape:connector-curvature="0" /></clipPath><clipPath
       clipPathUnits="userSpaceOnUse"
       id="clipPath4911"><path
         d="m 168,3813.6 0,100 100,0 0,-100 -100,0 z"
         id="path4913"
         inkscape:connector-curvature="0" /></clipPath><clipPath
       clipPathUnits="userSpaceOnUse"
       id="clipPath4929"><path
         d="m 168,3813.6 0,100 100,0 0,-100 -100,0 z"
         id="path4931"
         inkscape:connector-curvature="0" /></clipPath><clipPath
       clipPathUnits="userSpaceOnUse"
       id="clipPath4947"><path
         d="m 168,3813.6 0,100 100,0 0,-100 -100,0 z"
         id="path4949"
         inkscape:connector-curvature="0" /></clipPath><clipPath
       clipPathUnits="userSpaceOnUse"
       id="clipPath4965"><path
         d="m 168,3813.6 0,100 100,0 0,-100 -100,0 z"
         id="path4967"
         inkscape:connector-curvature="0" /></clipPath><clipPath
       clipPathUnits="userSpaceOnUse"
       id="clipPath4983"><path
         d="m 168,3813.6 0,100 100,0 0,-100 -100,0 z"
         id="path4985"
         inkscape:connector-curvature="0" /></clipPath><clipPath
       clipPathUnits="userSpaceOnUse"
       id="clipPath5001"><path
         d="m 168,3813.6 0,100 100,0 0,-100 -100,0 z"
         id="path5003"
         inkscape:connector-curvature="0" /></clipPath><clipPath
       clipPathUnits="userSpaceOnUse"
       id="clipPath5019"><path
         d="m 168,3813.6 0,100 100,0 0,-100 -100,0 z"
         id="path5021"
         inkscape:connector-curvature="0" /></clipPath><clipPath
       clipPathUnits="userSpaceOnUse"
       id="clipPath5037"><path
         d="m 168,3813.6 0,100 100,0 0,-100 -100,0 z"
         id="path5039"
         inkscape:connector-curvature="0" /></clipPath><clipPath
       clipPathUnits="userSpaceOnUse"
       id="clipPath5055"><path
         d="m 168,3813.6 0,100 100,0 0,-100 -100,0 z"
         id="path5057"
         inkscape:connector-curvature="0" /></clipPath><clipPath
       clipPathUnits="userSpaceOnUse"
       id="clipPath5077"><path
         d="m 168,3813.6 0,100 100,0 0,-100 -100,0 z"
         id="path5079"
         inkscape:connector-curvature="0" /></clipPath><clipPath
       clipPathUnits="userSpaceOnUse"
       id="clipPath5099"><path
         d="m 168,3813.6 0,100 100,0 0,-100 -100,0 z"
         id="path5101"
         inkscape:connector-curvature="0" /></clipPath><clipPath
       clipPathUnits="userSpaceOnUse"
       id="clipPath5117"><path
         d="m 168,3813.6 0,100 100,0 0,-100 -100,0 z"
         id="path5119"
         inkscape:connector-curvature="0" /></clipPath><clipPath
       clipPathUnits="userSpaceOnUse"
       id="clipPath5135"><path
         d="m 168,3813.6 0,100 100,0 0,-100 -100,0 z"
         id="path5137"
         inkscape:connector-curvature="0" /></clipPath><clipPath
       clipPathUnits="userSpaceOnUse"
       id="clipPath5153"><path
         d="m 168,3813.6 0,100 100,0 0,-100 -100,0 z"
         id="path5155"
         inkscape:connector-curvature="0" /></clipPath><clipPath
       clipPathUnits="userSpaceOnUse"
       id="clipPath5171"><path
         d="m 168,3813.6 0,100 100,0 0,-100 -100,0 z"
         id="path5173"
         inkscape:connector-curvature="0" /></clipPath><clipPath
       clipPathUnits="userSpaceOnUse"
       id="clipPath5189"><path
         d="m 168,3813.6 0,100 100,0 0,-100 -100,0 z"
         id="path5191"
         inkscape:connector-curvature="0" /></clipPath><clipPath
       clipPathUnits="userSpaceOnUse"
       id="clipPath5207"><path
         d="m 168,3813.6 0,100 100,0 0,-100 -100,0 z"
         id="path5209"
         inkscape:connector-curvature="0" /></clipPath><clipPath
       clipPathUnits="userSpaceOnUse"
       id="clipPath5225"><path
         d="m 168,3813.6 0,100 100,0 0,-100 -100,0 z"
         id="path5227"
         inkscape:connector-curvature="0" /></clipPath><clipPath
       clipPathUnits="userSpaceOnUse"
       id="clipPath5243"><path
         d="m 168,3813.6 0,100 100,0 0,-100 -100,0 z"
         id="path5245"
         inkscape:connector-curvature="0" /></clipPath><clipPath
       clipPathUnits="userSpaceOnUse"
       id="clipPath5261"><path
         d="m 168,3813.6 0,100 100,0 0,-100 -100,0 z"
         id="path5263"
         inkscape:connector-curvature="0" /></clipPath><clipPath
       clipPathUnits="userSpaceOnUse"
       id="clipPath5279"><path
         d="m 168,3813.6 0,100 100,0 0,-100 -100,0 z"
         id="path5281"
         inkscape:connector-curvature="0" /></clipPath><clipPath
       clipPathUnits="userSpaceOnUse"
       id="clipPath5301"><path
         d="m 168,3813.6 0,100 100,0 0,-100 -100,0 z"
         id="path5303"
         inkscape:connector-curvature="0" /></clipPath><clipPath
       clipPathUnits="userSpaceOnUse"
       id="clipPath5319"><path
         d="m 168,3813.6 0,100 100,0 0,-100 -100,0 z"
         id="path5321"
         inkscape:connector-curvature="0" /></clipPath><clipPath
       clipPathUnits="userSpaceOnUse"
       id="clipPath5337"><path
         d="m 168,3813.6 0,100 100,0 0,-100 -100,0 z"
         id="path5339"
         inkscape:connector-curvature="0" /></clipPath><clipPath
       clipPathUnits="userSpaceOnUse"
       id="clipPath5355"><path
         d="m 168,3813.6 0,100 100,0 0,-100 -100,0 z"
         id="path5357"
         inkscape:connector-curvature="0" /></clipPath></defs><sodipodi:namedview
     pagecolor="#ffffff"
     bordercolor="#666666"
     borderopacity="1"
     objecttolerance="10"
     gridtolerance="10"
     guidetolerance="10"
     inkscape:pageopacity="0"
     inkscape:pageshadow="2"
     inkscape:window-width="752"
     inkscape:window-height="787"
     id="namedview2987"
     showgrid="false"
     showborder="true"
     inkscape:zoom="4.4570308"
     inkscape:cx="202.20643"
     inkscape:cy="345.63858"
     inkscape:window-x="768"
     inkscape:window-y="0"
     inkscape:window-maximized="0"
     inkscape:current-layer="g2993" /><g
     id="g2993"
     inkscape:groupmode="layer"
     inkscape:label="Linie_U3_150865"
     transform="matrix(1.25,0,0,-1.25,0,500)"><g
       id="g3041" /><path
       sodipodi:nodetypes="ccccccccccccccccccccccccccccccccccccc"
       inkscape:connector-curvature="0"
       id="path3043"
       style="fill:#000000;fill-opacity:1;fill-rule:nonzero;stroke:none"
       d="m -5.7248e-5,23.371633 c 0,0 12.942689248,14.709145 40.356730248,35.34611 22.539302,16.985156 56.339763,28.535062 56.339763,28.535062 l -9.545658,22.386435 c 0,0 -17.070082,1.18896 -25.375823,16.10193 -4.433126,8.79831 -9.749479,22.59026 -9.749479,36.3822 0.03397,6.87899 0.203821,53.75802 0.203821,53.75802 0,0 3.549898,23.38856 9.817421,46.79411 1.698515,6.33546 11.668802,38.26755 11.668802,38.26755 0,0 6.505315,17.5117 16.118913,23.86415 10.174107,6.72612 25.307887,9.18897 31.473497,9.32485 14.62422,0.28875 74.19116,-0.0679 74.19116,-0.0679 0,0 17.86838,0.76433 31.03188,-7.16774 14.59025,-8.78132 17.30787,-25.95332 17.30787,-25.95332 l 13.43526,-51.63487 c 0,0 11.85564,-38.08072 20.29726,-50.44592 8.33971,-12.21232 8.61148,-13.24842 23.55841,-25.07009 14.96393,-11.82166 50.15717,-18.49683 50.15717,-18.49683 l 0,0 c 0,0 16.96817,-2.08917 19.32911,-4.60298 1.7155,-1.80042 1.2569,-6.69215 1.2569,-6.69215 l -0.20382,-29.23145 c 0,0 0.20382,-4.73886 0,-7.0998 -0.32272,-3.71975 -3.97453,-4.04246 -3.97453,-4.04246 l -0.28875,-8.71339 32.59452,0.06794 0,-7.235677 -117.55427,-0.492569 c 0,0 -37.31639,1.885352 -72.93426,-21.503208 C 174.23367,39.966131 162.6498,5.8527998e-5 162.6498,5.8527998e-5 l -38.48837,0 c 0,0 11.46498,28.721898472002 31.40556,51.380096472002 19.92358,22.641213 50.36098,35.87265 50.36098,35.87265 0,0 -70.33553,0.390658 -112.220922,-23.592382 C 42.615699,34.394999 25.205914,5.8527996e-5 25.205914,5.8527996e-5 l -25.205971248002,0 0,23.371574472004" /><path
       inkscape:connector-curvature="0"
       id="path3045"
       style="fill:#ffffff;fill-opacity:1;fill-rule:nonzero;stroke:none"
       d="m 168.16997,310.8454 c 0,-7.84714 -6.36943,-14.21658 -14.21657,-14.21658 -7.84715,0 -14.19959,6.36944 -14.19959,14.21658 0,7.84714 6.35244,14.19959 14.19959,14.19959 7.84714,0 14.21657,-6.35245 14.21657,-14.19959" /><path
       inkscape:connector-curvature="0"
       id="path3047"
       style="fill:#ffffff;fill-opacity:1;fill-rule:nonzero;stroke:none"
       d="m 104.23785,166.26775 c 0,-9.155 -7.422518,-16.57751 -16.577517,-16.57751 -9.154999,0 -16.577512,7.42251 -16.577512,16.57751 0,9.155 7.422513,16.57751 16.577512,16.57751 9.154999,0 16.577517,-7.42251 16.577517,-16.57751" /><path
       inkscape:connector-curvature="0"
       id="path3049"
       style="fill:#ffffff;fill-opacity:1;fill-rule:nonzero;stroke:none"
       d="m 227.92375,166.13187 c 0,-9.155 -7.42251,-16.57751 -16.57751,-16.57751 -9.155,0 -16.57751,7.42251 -16.57751,16.57751 0,9.155 7.42251,16.57751 16.57751,16.57751 9.155,0 16.57751,-7.42251 16.57751,-16.57751" /><path
       inkscape:connector-curvature="0"
       id="path3051"
       style="fill:#ffffff;fill-opacity:1;fill-rule:nonzero;stroke:none"
       d="m 82.598756,287.04919 65.307924,0 -4.02573,-44.14439 -73.409843,-3e-5 12.127649,44.14442"
       sodipodi:nodetypes="ccccc" /><path
       inkscape:connector-curvature="0"
       id="path3053"
       style="fill:#ffffff;fill-opacity:1;fill-rule:nonzero;stroke:none"
       d="m 158.35255,287.04919 65.05315,0 3.61759,-44.14439 -73.07014,0 4.3994,44.14439"
       sodipodi:nodetypes="ccccc" /><path
       inkscape:connector-curvature="0"
       id="path3055"
       style="fill:#ffffff;fill-opacity:1;fill-rule:nonzero;stroke:none"
       d="m 261.97899,209.74975 c 0,0 13.52018,-36.63698 44.56905,-49.57967 31.06585,-12.95967 53.48625,-13.65607 53.48625,-13.65607 l 0,-15.32061 c 0,0 -33.13803,0.017 -58.36099,7.79619 -25.20597,7.81317 -39.69431,21.18049 -39.69431,21.18049 l 0,49.57967" /><g
       id="g3161" /><g
       id="g3321" /><g
       id="g3501" /><g
       id="g3553"
       transform="scale(0.1,0.1)"><g
         clip-path="url(#clipPath3557)"
         id="g3555" /></g><g
       id="g3567"
       transform="scale(0.1,0.1)"><g
         clip-path="url(#clipPath3571)"
         id="g3569" /></g><g
       id="g3581"
       transform="scale(0.1,0.1)"><g
         clip-path="url(#clipPath3585)"
         id="g3583" /></g><g
       id="g3595"
       transform="scale(0.1,0.1)"><g
         clip-path="url(#clipPath3599)"
         id="g3597" /></g><g
       id="g3609"
       transform="scale(0.1,0.1)"><g
         clip-path="url(#clipPath3613)"
         id="g3611" /></g><g
       id="g3627"
       transform="scale(0.1,0.1)"><g
         clip-path="url(#clipPath3631)"
         id="g3629" /></g><g
       id="g3653"
       transform="scale(0.1,0.1)"><g
         clip-path="url(#clipPath3657)"
         id="g3655" /></g><g
       id="g3671"
       transform="scale(0.1,0.1)"><g
         clip-path="url(#clipPath3675)"
         id="g3673" /></g><g
       id="g3689"
       transform="scale(0.1,0.1)"><g
         clip-path="url(#clipPath3693)"
         id="g3691" /></g><g
       id="g3707"
       transform="scale(0.1,0.1)"><g
         clip-path="url(#clipPath3711)"
         id="g3709" /></g><g
       id="g3725"
       transform="scale(0.1,0.1)"><g
         clip-path="url(#clipPath3729)"
         id="g3727" /></g><g
       id="g3743"
       transform="scale(0.1,0.1)"><g
         clip-path="url(#clipPath3747)"
         id="g3745" /></g><g
       id="g3761"
       transform="scale(0.1,0.1)"><g
         clip-path="url(#clipPath3765)"
         id="g3763" /></g><g
       id="g3779"
       transform="scale(0.1,0.1)"><g
         clip-path="url(#clipPath3783)"
         id="g3781" /></g><g
       id="g3797"
       transform="scale(0.1,0.1)"><g
         clip-path="url(#clipPath3801)"
         id="g3799" /></g><g
       id="g3815"
       transform="scale(0.1,0.1)"><g
         clip-path="url(#clipPath3819)"
         id="g3817" /></g><g
       id="g3833"
       transform="scale(0.1,0.1)"><g
         clip-path="url(#clipPath3837)"
         id="g3835" /></g><g
       id="g3851"
       transform="scale(0.1,0.1)"><g
         clip-path="url(#clipPath3855)"
         id="g3853" /></g><g
       id="g3869"
       transform="scale(0.1,0.1)"><g
         clip-path="url(#clipPath3873)"
         id="g3871" /></g><g
       id="g3887"
       transform="scale(0.1,0.1)"><g
         clip-path="url(#clipPath3891)"
         id="g3889" /></g><g
       id="g3905"
       transform="scale(0.1,0.1)"><g
         clip-path="url(#clipPath3909)"
         id="g3907" /></g><g
       id="g3927"
       transform="scale(0.1,0.1)"><g
         clip-path="url(#clipPath3931)"
         id="g3929" /></g><g
       id="g3945"
       transform="scale(0.1,0.1)"><g
         clip-path="url(#clipPath3949)"
         id="g3947" /></g><g
       id="g3963"
       transform="scale(0.1,0.1)"><g
         clip-path="url(#clipPath3967)"
         id="g3965" /></g><g
       id="g3981"
       transform="scale(0.1,0.1)"><g
         clip-path="url(#clipPath3985)"
         id="g3983" /></g><g
       id="g3999"
       transform="scale(0.1,0.1)"><g
         clip-path="url(#clipPath4003)"
         id="g4001" /></g><g
       id="g4013"
       transform="scale(0.1,0.1)"><g
         clip-path="url(#clipPath4017)"
         id="g4015" /></g><g
       id="g4027"
       transform="scale(0.1,0.1)"><g
         clip-path="url(#clipPath4031)"
         id="g4029" /></g><g
       id="g4041"
       transform="scale(0.1,0.1)"><g
         clip-path="url(#clipPath4045)"
         id="g4043" /></g><g
       id="g4055"
       transform="scale(0.1,0.1)"><g
         clip-path="url(#clipPath4059)"
         id="g4057" /></g><g
       id="g4073"
       transform="scale(0.1,0.1)"><g
         clip-path="url(#clipPath4077)"
         id="g4075" /></g><g
       id="g4099"
       transform="scale(0.1,0.1)"><g
         clip-path="url(#clipPath4103)"
         id="g4101" /></g><g
       id="g4117"
       transform="scale(0.1,0.1)"><g
         clip-path="url(#clipPath4121)"
         id="g4119" /></g><g
       id="g4135"
       transform="scale(0.1,0.1)"><g
         clip-path="url(#clipPath4139)"
         id="g4137" /></g><g
       id="g4153"
       transform="scale(0.1,0.1)"><g
         clip-path="url(#clipPath4157)"
         id="g4155" /></g><g
       id="g4171"
       transform="scale(0.1,0.1)"><g
         clip-path="url(#clipPath4175)"
         id="g4173" /></g><g
       id="g4189"
       transform="scale(0.1,0.1)"><g
         clip-path="url(#clipPath4193)"
         id="g4191" /></g><g
       id="g4207"
       transform="scale(0.1,0.1)"><g
         clip-path="url(#clipPath4211)"
         id="g4209" /></g><g
       id="g4225"
       transform="scale(0.1,0.1)"><g
         clip-path="url(#clipPath4229)"
         id="g4227" /></g><g
       id="g4243"
       transform="scale(0.1,0.1)"><g
         clip-path="url(#clipPath4247)"
         id="g4245" /></g><g
       id="g4261"
       transform="scale(0.1,0.1)"><g
         clip-path="url(#clipPath4265)"
         id="g4263" /></g><g
       id="g4279"
       transform="scale(0.1,0.1)"><g
         clip-path="url(#clipPath4283)"
         id="g4281" /></g><g
       id="g4297"
       transform="scale(0.1,0.1)"><g
         clip-path="url(#clipPath4301)"
         id="g4299" /></g><g
       id="g4315"
       transform="scale(0.1,0.1)"><g
         clip-path="url(#clipPath4319)"
         id="g4317" /></g><g
       id="g4333"
       transform="scale(0.1,0.1)"><g
         clip-path="url(#clipPath4337)"
         id="g4335" /></g><g
       id="g4351"
       transform="scale(0.1,0.1)"><g
         clip-path="url(#clipPath4355)"
         id="g4353" /></g><g
       id="g4373"
       transform="scale(0.1,0.1)"><g
         clip-path="url(#clipPath4377)"
         id="g4375" /></g><g
       id="g4391"
       transform="scale(0.1,0.1)"><g
         clip-path="url(#clipPath4395)"
         id="g4393" /></g><g
       id="g4409"
       transform="scale(0.1,0.1)"><g
         clip-path="url(#clipPath4413)"
         id="g4411" /></g><g
       id="g4427"
       transform="scale(0.1,0.1)"><g
         clip-path="url(#clipPath4431)"
         id="g4429" /></g><g
       id="g4445"
       transform="scale(0.1,0.1)"><g
         clip-path="url(#clipPath4449)"
         id="g4447" /></g><g
       id="g4463"
       transform="scale(0.1,0.1)"><g
         clip-path="url(#clipPath4467)"
         id="g4465" /></g><g
       id="g4481"
       transform="scale(0.1,0.1)"><g
         clip-path="url(#clipPath4485)"
         id="g4483" /></g><g
       id="g4499"
       transform="scale(0.1,0.1)"><g
         clip-path="url(#clipPath4503)"
         id="g4501" /></g><g
       id="g4517"
       transform="scale(0.1,0.1)"><g
         clip-path="url(#clipPath4521)"
         id="g4519" /></g><g
       id="g4535"
       transform="scale(0.1,0.1)"><g
         clip-path="url(#clipPath4539)"
         id="g4537" /></g><g
       id="g4553"
       transform="scale(0.1,0.1)"><g
         clip-path="url(#clipPath4557)"
         id="g4555" /></g><g
       id="g4575"
       transform="scale(0.1,0.1)"><g
         clip-path="url(#clipPath4579)"
         id="g4577" /></g><g
       id="g4597"
       transform="scale(0.1,0.1)"><g
         clip-path="url(#clipPath4601)"
         id="g4599" /></g><g
       id="g4615"
       transform="scale(0.1,0.1)"><g
         clip-path="url(#clipPath4619)"
         id="g4617" /></g><g
       id="g4633"
       transform="scale(0.1,0.1)"><g
         clip-path="url(#clipPath4637)"
         id="g4635" /></g><g
       id="g4651"
       transform="scale(0.1,0.1)"><g
         clip-path="url(#clipPath4655)"
         id="g4653" /></g><g
       id="g4669"
       transform="scale(0.1,0.1)"><g
         clip-path="url(#clipPath4673)"
         id="g4671" /></g><g
       id="g4687"
       transform="scale(0.1,0.1)"><g
         clip-path="url(#clipPath4691)"
         id="g4689" /></g><g
       id="g4705"
       transform="scale(0.1,0.1)"><g
         clip-path="url(#clipPath4709)"
         id="g4707" /></g><g
       id="g4723"
       transform="scale(0.1,0.1)"><g
         clip-path="url(#clipPath4727)"
         id="g4725" /></g><g
       id="g4741"
       transform="scale(0.1,0.1)"><g
         clip-path="url(#clipPath4745)"
         id="g4743" /></g><g
       id="g4759"
       transform="scale(0.1,0.1)"><g
         clip-path="url(#clipPath4763)"
         id="g4761" /></g><g
       id="g4777"
       transform="scale(0.1,0.1)"><g
         clip-path="url(#clipPath4781)"
         id="g4779" /></g><g
       id="g4795"
       transform="scale(0.1,0.1)"><g
         clip-path="url(#clipPath4799)"
         id="g4797" /></g><g
       id="g4813"
       transform="scale(0.1,0.1)"><g
         clip-path="url(#clipPath4817)"
         id="g4815" /></g><g
       id="g4835"
       transform="scale(0.1,0.1)"><g
         clip-path="url(#clipPath4839)"
         id="g4837" /></g><g
       id="g4853"
       transform="scale(0.1,0.1)"><g
         clip-path="url(#clipPath4857)"
         id="g4855" /></g><g
       id="g4871"
       transform="scale(0.1,0.1)"><g
         clip-path="url(#clipPath4875)"
         id="g4873" /></g><g
       id="g4889"
       transform="scale(0.1,0.1)"><g
         clip-path="url(#clipPath4893)"
         id="g4891" /></g><g
       id="g4907"
       transform="scale(0.1,0.1)"><g
         clip-path="url(#clipPath4911)"
         id="g4909" /></g><g
       id="g4925"
       transform="scale(0.1,0.1)"><g
         clip-path="url(#clipPath4929)"
         id="g4927" /></g><g
       id="g4943"
       transform="scale(0.1,0.1)"><g
         clip-path="url(#clipPath4947)"
         id="g4945" /></g><g
       id="g4961"
       transform="scale(0.1,0.1)"><g
         clip-path="url(#clipPath4965)"
         id="g4963" /></g><g
       id="g4979"
       transform="scale(0.1,0.1)"><g
         clip-path="url(#clipPath4983)"
         id="g4981" /></g><g
       id="g4997"
       transform="scale(0.1,0.1)"><g
         clip-path="url(#clipPath5001)"
         id="g4999" /></g><g
       id="g5015"
       transform="scale(0.1,0.1)"><g
         clip-path="url(#clipPath5019)"
         id="g5017" /></g><g
       id="g5033"
       transform="scale(0.1,0.1)"><g
         clip-path="url(#clipPath5037)"
         id="g5035" /></g><g
       id="g5051"
       transform="scale(0.1,0.1)"><g
         clip-path="url(#clipPath5055)"
         id="g5053" /></g><g
       id="g5073"
       transform="scale(0.1,0.1)"><g
         clip-path="url(#clipPath5077)"
         id="g5075" /></g><g
       id="g5095"
       transform="scale(0.1,0.1)"><g
         clip-path="url(#clipPath5099)"
         id="g5097" /></g><g
       id="g5113"
       transform="scale(0.1,0.1)"><g
         clip-path="url(#clipPath5117)"
         id="g5115" /></g><g
       id="g5131"
       transform="scale(0.1,0.1)"><g
         clip-path="url(#clipPath5135)"
         id="g5133" /></g><g
       id="g5149"
       transform="scale(0.1,0.1)"><g
         clip-path="url(#clipPath5153)"
         id="g5151" /></g><g
       id="g5167"
       transform="scale(0.1,0.1)"><g
         clip-path="url(#clipPath5171)"
         id="g5169" /></g><g
       id="g5185"
       transform="scale(0.1,0.1)"><g
         clip-path="url(#clipPath5189)"
         id="g5187" /></g><g
       id="g5203"
       transform="scale(0.1,0.1)"><g
         clip-path="url(#clipPath5207)"
         id="g5205" /></g><g
       id="g5221"
       transform="scale(0.1,0.1)"><g
         clip-path="url(#clipPath5225)"
         id="g5223" /></g><g
       id="g5239"
       transform="scale(0.1,0.1)"><g
         clip-path="url(#clipPath5243)"
         id="g5241" /></g><g
       id="g5257"
       transform="scale(0.1,0.1)"><g
         clip-path="url(#clipPath5261)"
         id="g5259" /></g><g
       id="g5275"
       transform="scale(0.1,0.1)"><g
         clip-path="url(#clipPath5279)"
         id="g5277" /></g><g
       id="g5297"
       transform="scale(0.1,0.1)"><g
         clip-path="url(#clipPath5301)"
         id="g5299" /></g><g
       id="g5315"
       transform="scale(0.1,0.1)"><g
         clip-path="url(#clipPath5319)"
         id="g5317" /></g><g
       id="g5333"
       transform="scale(0.1,0.1)"><g
         clip-path="url(#clipPath5337)"
         id="g5335" /></g><g
       id="g5351"
       transform="scale(0.1,0.1)"><g
         clip-path="url(#clipPath5355)"
         id="g5353" /></g></g></svg>